<svg height="100%" version="1.1" width="100%" xmlns="http://www.w3.org/2000/svg" preserveAspectRatio="xMidYMid meet" viewBox="0 0 600 442" xmlns:xlink="http://www.w3.org/1999/xlink"><desc>Created with Snap</desc><defs/><g id="root" contentwidth="263.55" contentheight="322.6333333333333">
          <rect class="background" height="2000%" width="2000%" y="-1000%" x="-1000%" style="" fill="#ffffff"/>
          <rect class="watermarklayer" height="100%" width="100%" y="0" x="0" style="" fill="none"/>
          <g class="content" id="content" transform="matrix(1,0,0,1,-13.225,17.6833)">
            <g class="icon">
            <svg height="49" version="1.1" width="133" xmlns="http://www.w3.org/2000/svg" x="235" y="136" preserveAspectRatio="none" transform="matrix(1,0,0,1,0,0)"><desc>Created with Snap</desc><defs/><svg xmlns="http://www.w3.org/2000/svg" viewBox="233 134 137 53"><path d="m277.62 164.194-41.35 20.525c-3.396-12.452-1.191-26.135 6.613-41.05 7.804-14.915 19.383-8.074 34.736 20.525Zm47.22 0c15.354-28.599 26.932-35.44 34.737-20.525 7.804 14.915 10.008 28.598 6.613 41.05Z" id="prefix-ZCe-形状结合" stroke="#39363B" stroke-width="4" fill="#EFE7D7"/></svg></svg><svg height="30" version="1.1" width="116" xmlns="http://www.w3.org/2000/svg" x="244" y="149" preserveAspectRatio="none" transform="matrix(1,0,0,1,0,0)"><desc>Created with Snap</desc><defs/><svg xmlns="http://www.w3.org/2000/svg" viewBox="244 149 116 30"><path d="M270.379 166.361 244.917 179c-2.091-7.667-.734-16.093 4.072-25.278 4.806-9.184 11.936-4.971 21.39 12.64Zm63.587 0c9.454-17.61 16.584-21.823 21.39-12.639 4.806 9.185 6.163 17.61 4.072 25.278Z" id="prefix-hsJ-形状结合" fill="#D6C9BC"/></svg></svg><svg height="139" version="1.1" width="181" xmlns="http://www.w3.org/2000/svg" x="211" y="159" preserveAspectRatio="none" transform="matrix(1,0,0,1,0,0)"><desc>Created with Snap</desc><defs/><svg xmlns="http://www.w3.org/2000/svg" viewBox="211 159 181 139"><path d="M302.023 298c21.229 0 48.896-4.066 65.583-16.432 16.686-12.365 23.724-35.214 23.724-56.008 0-40.92-46.112-66.705-89.275-66.705-43.163 0-91.41 25.784-91.41 66.705 0 21.375 11.152 43.022 27.19 56.008C253.108 293.934 281.408 298 302.024 298Z" id="prefix--V1-椭圆形" fill="#EFE7D7" transform="matrix(1 0 0 -1 0 456.855)"/></svg></svg><svg height="226" version="1.1" width="226" xmlns="http://www.w3.org/2000/svg" x="188" y="77" preserveAspectRatio="none" transform="matrix(1,0,0,1,0,0)"><desc>Created with Snap</desc><defs/><svg xmlns="http://www.w3.org/2000/svg" viewBox="191 80 218 218"><path d="M300 80c60.199 0 109 48.801 109 109 0 26.893-9.74 51.511-25.883 70.52-15.159 24.19-48.928 38.48-81.062 38.48-.393 0-.786-.002-1.18-.006L300 298c-60.199 0-109-48.801-109-109S239.801 80 300 80Zm2.023 83.855c-1.771 0-3.54.028-5.304.084l-1.51.054-1.507.068-.752.04-1.5.087c-2.745.174-5.464.415-8.14.723l-1.456.174-1.446.188c-1.682.226-3.344.48-4.982.76l-1.398.245c-.464.084-.926.17-1.386.26l-1.372.271c-12.52 2.551-23.317 6.72-30.288 12.364-15.272 12.365-25.338 32.751-25.338 52.123 0 17.484 9.868 32.997 27.28 44.528 16.125 10.679 37.463 16.945 57.991 17.17L300 293c31.658 0 60.012-14.145 79.087-36.46 4.729-7.685 7.243-16.19 7.243-25.244 0-21.75-7.77-41.669-21.701-51.992-9.987-7.4-25.457-12.215-42.722-14.286l-1.55-.178c-1.037-.113-2.08-.217-3.129-.312l-1.576-.134c-1.316-.105-2.64-.195-3.97-.27l-1.599-.082c-2.669-.124-5.36-.187-8.06-.187ZM300 85c-57.438 0-104 46.562-104 104 0 20.84 6.13 40.248 16.684 56.52a50.114 50.114 0 0 1-2.04-14.224c0-21.376 11.153-43.022 27.192-56.009 9.585-7.761 24.303-12.253 39.032-14.522l1.498-.223c2.745-.395 5.485-.714 8.185-.964l1.47-.13.73-.06 1.456-.109 1.444-.096 1.433-.083 1.42-.07 1.405-.059.697-.025 1.381-.04 1.365-.028c.451-.008.9-.013 1.345-.017l1.326-.006 1.41.006 1.426.018c2.152.037 4.36.114 6.606.238l1.503.089a171.9 171.9 0 0 1 6.104.497l1.544.16c17.009 1.853 34.887 6.456 46.99 15.424 12.848 9.521 19.976 25.258 22.575 41.487l.193 1.265c.645 4.432.956 8.89.956 13.257 0 3.023-.252 5.963-.736 8.817C399.13 225.018 404 207.578 404 189c0-57.438-46.562-104-104-104Z" id="prefix-VhE-形状结合" fill="#39363B" fill-rule="nonzero"/></svg></svg><svg height="51" version="1.1" width="197" xmlns="http://www.w3.org/2000/svg" x="201" y="197" preserveAspectRatio="none" transform="matrix(1,0,0,1,0,0)"><desc>Created with Snap</desc><defs/><svg xmlns="http://www.w3.org/2000/svg" viewBox="201 197 197 51"><path d="M302.001 226.93v5.56c0 5.337 4.327 9.664 9.665 9.664 5.337 0 9.664-4.327 9.664-9.665a1.5 1.5 0 1 1 3 0c0 6.995-5.67 12.665-12.664 12.665a12.658 12.658 0 0 1-10.894-6.2c-2.037 4.267-6.392 7.215-11.436 7.215-6.994 0-12.664-5.67-12.664-12.665a1.5 1.5 0 1 1 3 0 9.665 9.665 0 1 0 19.329 0c0-.087.008-.173.022-.256l-.013-.274h-.009v-6.045h3Zm-15.065-21.667a2 2 0 1 1-3.056 2.58c-8.064-9.55-15.932-9.55-24.825.068a2 2 0 1 1-2.937-2.716c10.497-11.353 21.176-11.353 30.818.068Zm64.958 0a2 2 0 1 1-3.056 2.58c-7.73-9.157-15.283-9.534-23.73-1.073l-.546.558c-.183.19-.366.385-.55.583a2 2 0 0 1-2.936-2.716c10.497-11.353 21.176-11.353 30.818.068Zm-122.397 36.648a1.5 1.5 0 0 1-1.408 1.586l-.575.036-1.124.079-1.093.09c-.358.03-.711.064-1.06.099l-1.026.11c-5.726.648-9.876 1.783-12.42 3.363a1.5 1.5 0 0 1-1.583-2.548c3.044-1.891 7.726-3.158 14.082-3.843l1.106-.112.565-.052 1.156-.095c.195-.015.392-.03.59-.043l1.204-.078a1.5 1.5 0 0 1 1.586 1.408Zm143.447-1.41.145.002 1.204.078.59.043 1.155.095.566.052 1.106.112c6.356.685 11.038 1.952 14.081 3.843a1.5 1.5 0 0 1-1.583 2.548c-2.543-1.58-6.693-2.715-12.42-3.364l-1.026-.11c-.348-.034-.7-.067-1.06-.099l-1.092-.089-1.124-.079-.575-.036a1.5 1.5 0 1 1 .178-2.994Zm-144.36-9.882a1.5 1.5 0 1 1-1.169 2.762c-5.953-2.52-13.965-2.52-24.041.072a1.5 1.5 0 1 1-.748-2.906c10.66-2.741 19.314-2.741 25.959.072Zm142.831 0c6.645-2.813 15.3-2.813 25.959-.072a1.5 1.5 0 1 1-.748 2.906c-10.076-2.592-18.088-2.592-24.041-.072a1.5 1.5 0 1 1-1.17-2.762Zm-140.3-6.623a1.5 1.5 0 0 1-2.23 2.008c-4.006-4.444-12.286-6.67-24.864-6.494a1.5 1.5 0 0 1-.042-3c13.36-.186 22.413 2.248 27.135 7.486Zm138.77 0c4.723-5.238 13.777-7.672 27.136-7.486a1.5 1.5 0 0 1-.042 3c-12.578-.176-20.858 2.05-24.865 6.494a1.5 1.5 0 0 1-2.228-2.008Z" id="prefix-c4S-形状结合" fill="#39363B" fill-rule="nonzero"/></svg></svg><svg height="12" version="1.1" width="12" xmlns="http://www.w3.org/2000/svg" x="295" y="218" preserveAspectRatio="none" transform="matrix(1,0,0,1,0,0)"><desc>Created with Snap</desc><defs/><svg xmlns="http://www.w3.org/2000/svg" viewBox="295 218 12 12"><path d="m303.184 223.139 2.759 5.516a3 3 0 0 1-2.684 4.342h-5.516a3 3 0 0 1-2.683-4.342l2.758-5.516a3 3 0 0 1 5.366 0Z" id="prefix-vDL-三角形" fill="#E4C5DA" transform="matrix(1 0 0 -1 0 450.769)"/></svg></svg><svg height="12" version="1.1" width="12" xmlns="http://www.w3.org/2000/svg" x="295" y="218" preserveAspectRatio="none" transform="matrix(1,0,0,1,0,0)"><desc>Created with Snap</desc><defs/><svg xmlns="http://www.w3.org/2000/svg" viewBox="295 218 12 12"><path d="M301.843 218.087a3 3 0 0 1 1.341 1.342l2.759 5.516a3 3 0 0 1-2.684 4.342h-5.516a3 3 0 0 1-2.683-4.342l2.758-5.516a3 3 0 0 1 4.025-1.342Zm-1.342 2.684-2.758 5.516h5.516l-2.758-5.516Z" id="prefix-AYy-三角形" fill="#39363B" fill-rule="nonzero" transform="matrix(1 0 0 -1 0 447.057)"/></svg></svg><svg height="77" version="1.1" width="78" xmlns="http://www.w3.org/2000/svg" x="352" y="51" preserveAspectRatio="none" transform="matrix(1,0,0,1,0,0)"><desc>Created with Snap</desc><defs/><svg xmlns="http://www.w3.org/2000/svg" viewBox="349 48 83 82"><path d="M391 50.5c10.631 0 20.256 4.31 27.224 11.276C425.19 68.744 429.5 78.37 429.5 89s-4.31 20.256-11.276 27.224C411.256 123.19 401.63 127.5 391 127.5a38.328 38.328 0 0 1-23.406-7.929l-15.882 5.469 5.814-17.006A38.319 38.319 0 0 1 352.5 89c0-10.631 4.31-20.256 11.276-27.224C370.744 54.81 380.37 50.5 391 50.5Z" id="prefix-8G6-形状结合" stroke="#39363B" stroke-width="5" fill="#FED97C"/></svg></svg><path d="M403.9 63.8 L403.9 111 L397.7 111 L397.7 88.2 L374.4 88.2 L374.4 111 L368.2 111 L368.2 63.8 L374.4 63.8 L374.4 83 L397.7 83 L397.7 63.8 L403.9 63.8 M419.2 67.5 Q417.2 67.5 416.4 66.9 Q415.6 66.3 415.6 64.1 Q415.6 61.8 416.4 61.2 Q417.2 60.6 419.2 60.6 Q421 60.6 421.8 61.2 Q422.6 61.8 422.6 64.1 Q422.6 66.3 421.8 66.9 Q421 67.5 419.2 67.5 Z M416.2 74.3 L422 74.3 L422 111 L416.2 111 L416.2 74.3 " style="" fill="#39363b" transform="matrix(1,0,0,1,0,0)"/></g>
            <g id="icon_name_and_slogan_gap">
            </g>
            <g class="name_and_slogan" id="name_and_slogan_id">
              <g class="name"><g id="nameDefaultGroup"><path d="M183.9 340.6 Q186.7 336.3 191.1 335.7 Q195.5 335 200.8 336 Q200.8 334.7 201.8 334.6 Q202.9 334.5 203.7 334.7 Q204.5 335 204.6 335.5 Q204.8 336 204.9 342.2 Q205 348.3 205 353.3 Q205 358.4 205 360.5 Q205 362.6 204.9 363.4 Q204.8 364.2 203.7 364.5 Q202.6 364.7 201.7 364.6 Q200.8 364.5 200.8 363.9 Q200.8 363.4 200.5 361 Q197.1 362.9 193.1 363 Q189.1 363.1 185.5 360.5 Q181.9 357.8 181.5 351.3 Q181.1 344.8 183.9 340.6 Z M200.5 340.3 Q195.2 339 192.3 339.8 Q189.4 340.6 187.6 343.4 Q185.9 346.1 186.2 350.4 Q186.4 354.6 188.8 356.6 Q191.2 358.6 194 358.6 Q196.8 358.6 200.5 357 Q200.5 348.8 200.5 340.3 Z M185.2 332.9 Q184 333.7 183.9 334.1 Q183.8 334.5 183.1 333.4 Q182.5 332.3 182.7 330.6 Q183 328.9 183.6 328.5 Q184.3 328.1 185.9 328.8 Q187.5 329.4 188 330.2 Q188.6 331 188.7 331.3 Q188.8 331.5 187.6 331.8 Q186.4 332.1 185.2 332.9 Z M198.1 327.2 Q198.7 326 199.3 325.2 Q200 324.4 201 324.6 Q202.1 324.9 203 326.4 Q204 327.8 204 328.9 Q204 329.9 202.6 329.7 Q201.3 329.4 199.7 329.8 Q198.1 330.2 197.9 330.1 Q197.6 329.9 197.6 329.1 Q197.6 328.3 198.1 327.2 M213.8 340.8 Q214 337.6 214.1 336.8 Q214.2 336 215 335.8 Q215.8 335.5 216.8 335.7 Q217.7 335.8 218.1 336.3 Q218.5 336.8 218.5 339.2 Q220.6 336 224.6 335.2 Q228.6 334.5 231.6 336.5 Q234.7 338.4 235.6 342.8 Q236.6 347.2 236.4 353.5 Q236.3 359.7 236.3 361 Q236.3 362.3 235.5 362.8 Q234.7 363.1 233.1 363 Q231.5 362.9 231.6 362.1 Q231.8 361.3 231.6 355.8 Q231.5 350.4 231.2 346.7 Q231 343 229.4 341.2 Q227.8 339.5 225.1 339.6 Q222.5 339.8 220.8 342.3 Q219 344.8 218.9 348.9 Q218.8 353 218.8 356.6 Q218.8 360.2 218.8 361.3 Q218.8 362.3 218 362.8 Q217.2 363.1 215.8 363 Q214.5 362.9 214.2 362.3 Q214 361.8 213.8 358.1 Q213.7 354.4 213.7 349.2 Q213.7 344 213.8 340.8 M245.3 343.9 Q246.8 339 251.7 336.6 Q256.6 334.2 263.5 335.8 Q263.5 328.3 263.6 325.4 Q263.8 322.5 263.8 322 Q263.8 321.4 264.8 321.2 Q265.9 320.9 267.1 321.2 Q268.3 321.4 268.3 321.8 Q268.3 322.2 268.4 325.2 Q268.6 328.1 268.6 332.9 Q268.6 337.6 268.6 347.9 Q268.6 358.1 268.6 360.5 Q268.6 362.9 268.4 363.4 Q268.3 363.9 267.5 364.1 Q266.7 364.2 265.4 364.2 Q264 364.2 263.8 363.8 Q263.5 363.4 263.5 361.3 Q260.9 362.6 256.6 362.6 Q252.4 362.6 249.4 360.5 Q246.5 358.4 245.2 353.6 Q243.9 348.8 245.3 343.9 Z M263.2 340.3 Q258.2 338.7 254.8 340.2 Q251.3 341.6 250 345.5 Q248.6 349.3 249.7 352.8 Q250.8 356.2 254.6 357.6 Q258.5 358.9 263.5 356 L263.2 340.3 M276.8 342.8 Q278.8 337.9 282 336 Q285.2 334.2 289.7 334.5 Q294.2 334.7 297.6 338 Q300.9 341.4 301.3 347.1 Q301.7 352.8 299.3 356.9 Q296.9 361 292.5 362.5 Q288.1 363.9 283.4 362 Q278.6 360 276.7 353.8 Q274.9 347.7 276.8 342.8 Z M285 339.9 Q282.8 341.1 281.6 344.2 Q280.4 347.2 281.1 351.2 Q281.8 355.2 284.5 357 Q287.3 358.9 290.7 358 Q294 357 295.3 354 Q296.6 350.9 296.4 347.3 Q296.1 343.8 294.1 341.6 Q292.1 339.5 289.6 339.1 Q287.1 338.7 285 339.9 Z M275.9 333.7 Q277 332.1 278.2 330.6 Q279.4 329.1 281.1 327.7 Q282.8 326.2 286 326.1 Q289.2 326 291.5 327.7 Q293.7 329.4 295.2 331.3 Q296.6 333.1 298.8 336.8 Q301.4 336 302.1 336 Q302.8 336 302.9 336.6 Q303 337.1 301 337.6 Q299 338.2 298.6 338.2 Q298.2 338.2 297.2 336.2 Q296.1 334.2 294.6 332.2 Q293.2 330.2 291.1 328.8 Q288.9 327.3 286 327.3 Q283.1 327.3 281.5 328.8 Q279.9 330.2 278.8 331.7 Q277.8 333.1 277.5 333.4 Q277.2 333.7 277.8 334.5 Q278.3 335.2 278.4 335.9 Q278.6 336.6 277.6 336.8 Q276.7 337.1 276.5 337.4 Q276.2 337.6 277 339.8 Q277.8 341.9 279.4 344.3 Q281 346.7 284.2 347.7 Q287.3 348.8 290.3 347.2 Q293.2 345.6 294.9 343.2 Q296.6 340.8 297 340.4 Q297.4 340 297.8 340.2 Q298.2 340.3 299.2 341.4 Q300.1 342.4 300.5 343 Q300.9 343.5 301.2 342.7 Q301.4 341.9 301.5 340.3 Q301.7 338.7 301.8 338.3 Q302 337.9 302.3 338 Q302.8 338.2 302.8 338.7 Q302.8 339.2 302.3 341.8 Q302 344.3 301.5 344.5 Q301.2 344.8 299.7 343.1 Q298.2 341.4 298 341.4 Q297.7 341.4 295.8 343.8 Q294 346.1 290.9 348 Q287.9 349.9 284.5 349.1 Q281.2 348.3 278.8 345.5 Q276.5 342.7 275.8 340.3 Q275.1 337.9 275 337.4 Q274.9 336.8 275.9 336.6 Q277 336.3 277.1 335.9 Q277.2 335.5 275.9 333.7 M309.9 340.3 Q309.9 336.3 310 335.8 Q310.2 335.2 311.1 335 Q312 334.7 313.2 334.9 Q314.4 335 314.6 335.7 Q314.7 336.3 315 341.1 Q317.6 336.3 320.9 335.7 Q324.3 335 325.3 335.4 Q326.4 335.8 326.5 337 Q326.7 338.2 326.2 339.2 Q325.9 340.3 325.1 340.2 Q324.3 340 321.6 340.7 Q319 341.4 317.6 343.1 Q316.3 344.8 315.8 346.1 Q315.2 347.5 315.1 351.1 Q315 354.6 315 357.8 Q315 361 314.8 361.8 Q314.7 362.6 313.9 362.8 Q313.1 362.9 311.5 362.8 Q309.9 362.6 309.9 362 Q309.9 361.3 309.8 358.4 Q309.7 355.4 309.8 349.9 Q309.9 344.3 309.9 340.3 M335.8 340.8 Q336 337.6 336.1 336.8 Q336.2 336 337 335.8 Q337.8 335.5 338.8 335.7 Q339.7 335.8 340.1 336.3 Q340.5 336.8 340.5 339.2 Q342.6 336 346.6 335.2 Q350.6 334.5 353.6 336.5 Q356.7 338.4 357.6 342.8 Q358.6 347.2 358.4 353.5 Q358.3 359.7 358.3 361 Q358.3 362.3 357.5 362.8 Q356.7 363.1 355.1 363 Q353.5 362.9 353.6 362.1 Q353.8 361.3 353.6 355.8 Q353.5 350.4 353.2 346.7 Q353 343 351.4 341.2 Q349.8 339.5 347.1 339.6 Q344.5 339.8 342.8 342.3 Q341 344.8 340.9 348.9 Q340.8 353 340.8 356.6 Q340.8 360.2 340.8 361.3 Q340.8 362.3 340 362.8 Q339.2 363.1 337.8 363 Q336.5 362.9 336.2 362.3 Q336 361.8 335.8 358.1 Q335.7 354.4 335.7 349.2 Q335.7 344 335.8 340.8 M366.8 342.8 Q368.8 337.9 372 336 Q375.2 334.2 379.7 334.5 Q384.2 334.7 387.6 338 Q390.9 341.4 391.3 347.1 Q391.7 352.8 389.3 356.9 Q386.9 361 382.5 362.5 Q378.1 363.9 373.4 362 Q368.6 360 366.7 353.8 Q364.9 347.7 366.8 342.8 Z M375 339.9 Q372.8 341.1 371.6 344.2 Q370.4 347.2 371.1 351.2 Q371.8 355.2 374.5 357 Q377.3 358.9 380.7 358 Q384 357 385.3 354 Q386.6 350.9 386.4 347.3 Q386.1 343.8 384.1 341.6 Q382.1 339.5 379.6 339.1 Q377.1 338.7 375 339.9 Z M365.9 333.7 Q367 332.1 368.2 330.6 Q369.4 329.1 371.1 327.7 Q372.8 326.2 376 326.1 Q379.2 326 381.5 327.7 Q383.7 329.4 385.2 331.3 Q386.6 333.1 388.8 336.8 Q391.4 336 392.1 336 Q392.8 336 392.9 336.6 Q393 337.1 391 337.6 Q389 338.2 388.6 338.2 Q388.2 338.2 387.2 336.2 Q386.1 334.2 384.6 332.2 Q383.2 330.2 381.1 328.8 Q378.9 327.3 376 327.3 Q373.1 327.3 371.5 328.8 Q369.9 330.2 368.8 331.7 Q367.8 333.1 367.5 333.4 Q367.2 333.7 367.8 334.5 Q368.3 335.2 368.4 335.9 Q368.6 336.6 367.6 336.8 Q366.7 337.1 366.5 337.4 Q366.2 337.6 367 339.8 Q367.8 341.9 369.4 344.3 Q371 346.7 374.2 347.7 Q377.3 348.8 380.3 347.2 Q383.2 345.6 384.9 343.2 Q386.6 340.8 387 340.4 Q387.4 340 387.8 340.2 Q388.2 340.3 389.2 341.4 Q390.1 342.4 390.5 343 Q390.9 343.5 391.2 342.7 Q391.4 341.9 391.5 340.3 Q391.7 338.7 391.8 338.3 Q392 337.9 392.3 338 Q392.8 338.2 392.8 338.7 Q392.8 339.2 392.3 341.8 Q392 344.3 391.5 344.5 Q391.2 344.8 389.7 343.1 Q388.2 341.4 388 341.4 Q387.7 341.4 385.8 343.8 Q384 346.1 380.9 348 Q377.9 349.9 374.5 349.1 Q371.2 348.3 368.8 345.5 Q366.5 342.7 365.8 340.3 Q365.1 337.9 365 337.4 Q364.9 336.8 365.9 336.6 Q367 336.3 367.1 335.9 Q367.2 335.5 365.9 333.7 M404.4 339.8 Q400.5 339.8 399.9 339.5 Q399.4 339.2 399.4 337.9 Q399.4 336.6 399.7 336 Q399.9 335.5 404.4 335.5 Q404.7 329.1 404.8 328.3 Q405 327.5 406 327.4 Q407.1 327.3 408.2 327.5 Q409.2 327.8 409.3 328.5 Q409.5 329.1 409.2 335.2 Q412.1 335.5 413.1 335.5 Q414 335.5 414 337.1 Q414 338.7 413.7 339.2 Q413.5 339.8 409.2 339.8 Q409.2 345.6 409.2 349.7 Q409.2 353.8 409.9 356.1 Q410.5 358.4 412.5 358.5 Q414.5 358.6 415.3 358.5 Q416.1 358.4 416.5 359.2 Q416.9 360 416.8 360.9 Q416.7 361.8 415.7 362.2 Q414.8 362.6 411.5 362.8 Q408.2 362.9 406.3 360.8 Q404.4 358.6 404.4 352.4 Q404.4 346.1 404.4 339.8 " style="" fill="#533e2c" transform="matrix(1,0,0,1,0,0)"/></g></g>
              <g class="slogan"><g id="sloganDefaultGroup"/></g>
            </g>
            <g class="border">
            </g>
          </g>
          <defs id="defs">
            <mask xmlns="http://www.w3.org/2000/svg" id="mask">
                <rect id="showAll" fill="white" x="188" y="42" width="257" height="261"/>
                <rect id="hideNameBg" fill="black" x="0" y="0" width="0" height="0" stroke-width="2" stroke="black"/>
                <rect id="hideSloganBg" fill="black" x="0" y="0" width="0" height="0" stroke-width="2" stroke="black"/>
            </mask>
          
          </defs>
        </g>
        </svg>